<svg xmlns="http://www.w3.org/2000/svg" version="1.1" xmlns:xlink="http://www.w3.org/1999/xlink" width="200" height="200"><svg xmlns="http://www.w3.org/2000/svg" version="1.1" xmlns:xlink="http://www.w3.org/1999/xlink" width="200" height="200"><svg xmlns="http://www.w3.org/2000/svg" version="1.1" xmlns:xlink="http://www.w3.org/1999/xlink" viewBox="0 0 200 200"><rect width="200" height="200" fill="url('#gradient')"></rect><defs><linearGradient id="gradient" gradientTransform="rotate(199 0.5 0.5)"><stop offset="0%" stop-color="#000000"></stop><stop offset="100%" stop-color="#c20470"></stop></linearGradient></defs><g><g fill="#326531" transform="matrix(3.6728265107212477,0,0,3.6728265107212477,4.062726563970472,126.11317184808891)" stroke="#b77332" stroke-width="0.3"><path d="M5.75 0L1.07 0L1.07-14.22L5.65-14.22Q7.54-14.22 9.04-13.36Q10.55-12.51 11.39-10.95Q12.24-9.39 12.25-7.46L12.25-7.46L12.25-6.81Q12.25-4.85 11.42-3.31Q10.60-1.76 9.10-0.88Q7.60-0.01 5.75 0L5.75 0ZM5.65-11.57L4.50-11.57L4.50-2.64L5.69-2.64Q7.17-2.64 7.96-3.69Q8.75-4.74 8.75-6.81L8.75-6.81L8.75-7.42Q8.75-9.48 7.96-10.53Q7.17-11.57 5.65-11.57L5.65-11.57ZM16.43-10.57L18.07-3.92L19.74-10.57L23.20-10.57L19.76 0L16.40 0L12.95-10.57L16.43-10.57ZM24.34-14.22L28.84-14.22L32.01-4.33L35.18-14.22L39.69-14.22L39.69 0L36.25 0L36.25-3.32L36.58-10.12L33.14 0L30.88 0L27.43-10.13L27.76-3.32L27.76 0L24.34 0L24.34-14.22ZM41.65-10.57L44.74-10.57L44.84-9.33Q45.94-10.76 47.86-10.76L47.86-10.76Q49.51-10.76 50.33-9.78Q51.14-8.79 51.17-6.81L51.17-6.81L51.17 0L47.87 0L47.87-6.67Q47.87-7.47 47.55-7.85Q47.23-8.22 46.38-8.22L46.38-8.22Q45.41-8.22 44.94-7.46L44.94-7.46L44.94 0L41.65 0L41.65-10.57Z"></path></g></g></svg></svg><style>@media (prefers-color-scheme: light) { :root { filter: none; } }
@media (prefers-color-scheme: dark) { :root { filter: none; } }
</style></svg>